# xmcd
#
# Track frame offsets: 
#        150
#        17527
#        34255
#        47722
#        60210
#        77547
#        92625
#        114812
#        128412
#        142415
#        156467
#
# Disc length: 2265 seconds
#
# Revision: 3
# Processed by: cddbd v1.5.1PL0 Copyright (c) Steve Scherf et al.
# Submitted via: ExactAudioCopy v0.95a5
#
DISCID=8208d70b
DTITLE=Raging Slab - Raging Slab
DYEAR=1989
DGENRE=Rock
TTITLE0=Don't Dog Me
TTITLE1=Joy Ride
TTITLE2=Sorry's All I Got
TTITLE3=Waiting For The Potion
TTITLE4=Get Off My Jollies
TTITLE5=Shiny Mama
TTITLE6=Geronimo
TTITLE7=Bent For Silver
TTITLE8=Love Comes Loose
TTITLE9=Dig A Hole
TTITLE10=San Loco
EXTD=more info\nMillenniumMusicProjectFormat, syntax as follows:\nTitl
EXTD=e{Subtitle}[info](Lyricist;Composer;Date,Artist,Location)[info]\n
EXTD=corrections to: windking3@yahoo.com
EXTT0=
EXTT1=
EXTT2=
EXTT3=
EXTT4=
EXTT5=
EXTT6=
EXTT7=
EXTT8=
EXTT9=
EXTT10=
PLAYORDER=
